# xmcd
#
# Track frame offsets: 
#        150
#        16481
#        20324
#        25787
#        47306
#        75420
#        86122
#        93646
#        106354
#        115476
#        125155
#        142963
#        144100
#        159722
#        162449
#        190241
#        207790
#        212612
#        229268
#        233422
#        240158
#        276773
#        277888
#        280960
#        285789
#        287788
#        307074
#
# Disc length: 4418 seconds
#
# Revision: 0
# Processed by: cddbd v1.5.2PL0 Copyright (c) Steve Scherf et al.
# Submitted via: ExactAudioCopy v0.95b3
#
DISCID=7011401b
DTITLE=Led Zeppelin  - Studio Sessions Ultimate [Disc 9] 
DYEAR=1900
DGENRE=
TTITLE0=The Wanton Song
TTITLE1=The Wanton Song
TTITLE2=Unknown Song
TTITLE3=Unknown Song
TTITLE4=Take Me Home
TTITLE5=Trampled Underfoot
TTITLE6=Trampled Underfoot
TTITLE7=Trampled Underfoot
TTITLE8=Trampled Underfoot
TTITLE9=Trampled Underfoot
TTITLE10=Trampled Underfoot
TTITLE11=Trampled Underfoot
TTITLE12=Trampled Underfoot
TTITLE13=Trampled Underfoot
TTITLE14=In The Light
TTITLE15=Sick Again
TTITLE16=The Rover
TTITLE17=Untitled Instrumental
TTITLE18=In My Time Of Dying
TTITLE19=In My Time Of Dying
TTITLE20=In My Time Of Dying
TTITLE21=In My Time Of Dying
TTITLE22=In My Time Of Dying
TTITLE23=In My Time Of Dying
TTITLE24=In My Time Of Dying
TTITLE25=The Wanton Song (alternate mix)
TTITLE26=Trampled Underfoot (alternate mix)
EXTD=
EXTT0=
EXTT1=
EXTT2=
EXTT3=
EXTT4=
EXTT5=
EXTT6=
EXTT7=
EXTT8=
EXTT9=
EXTT10=
EXTT11=
EXTT12=
EXTT13=
EXTT14=
EXTT15=
EXTT16=
EXTT17=
EXTT18=
EXTT19=
EXTT20=
EXTT21=
EXTT22=
EXTT23=
EXTT24=
EXTT25=
EXTT26=
PLAYORDER=
